<?xml version="1.0" encoding="UTF-8"?>
<!DOCTYPE svg PUBLIC "-//W3C//DTD SVG 1.1//EN" "http://www.w3.org/Graphics/SVG/1.1/DTD/svg11.dtd">
<svg xmlns="http://www.w3.org/2000/svg" version="1.1" width="512px" height="512px" style="shape-rendering:geometricPrecision; text-rendering:geometricPrecision; image-rendering:optimizeQuality; fill-rule:evenodd; clip-rule:evenodd" xmlns:xlink="http://www.w3.org/1999/xlink">
<g><path style="opacity:0.935" fill="#fefffe" d="M 51.5,-0.5 C 61.1667,-0.5 70.8333,-0.5 80.5,-0.5C 85.768,4.33731 85.768,9.17064 80.5,14C 73.5,14.3333 66.5,14.6667 59.5,15C 49.8848,15.9551 43.0514,20.7884 39,29.5C 37.3595,56.7713 37.0261,84.1047 38,111.5C 40.4084,118.909 45.2417,124.076 52.5,127C 66.281,128.131 80.1143,128.631 94,128.5C 106.5,128.333 119,128.167 131.5,128C 141.676,125.824 147.842,119.658 150,109.5C 150.964,82.7843 150.631,56.1176 149,29.5C 145.777,23.2767 140.943,18.7767 134.5,16C 124.767,15.1659 115.101,14.1659 105.5,13C 102.409,7.79874 103.075,3.29874 107.5,-0.5C 117.167,-0.5 126.833,-0.5 136.5,-0.5C 150.488,3.60794 159.988,12.6079 165,26.5C 166.125,41.4567 166.625,56.4567 166.5,71.5C 175.93,129.236 151.763,153.57 94,144.5C 81.1667,144.333 68.3333,144.167 55.5,144C 39.2658,141.764 28.4325,132.93 23,117.5C 21.3657,88.215 21.0323,58.8817 22,29.5C 26.0151,13.6524 35.8485,3.65237 51.5,-0.5 Z"/></g>
<g><path style="opacity:0.941" fill="#fefffe" d="M 212.5,-0.5 C 241.167,-0.5 269.833,-0.5 298.5,-0.5C 313.159,3.99316 322.659,13.6598 327,28.5C 328.112,42.7952 328.612,57.1286 328.5,71.5C 337.158,128.842 312.825,153.175 255.5,144.5C 198.175,153.175 173.842,128.842 182.5,71.5C 182.388,57.1286 182.888,42.7952 184,28.5C 188.341,13.6598 197.841,3.99316 212.5,-0.5 Z M 221.5,14.5 C 244.169,14.3334 266.836,14.5 289.5,15C 302.093,16.2603 309.593,23.0936 312,35.5C 312.667,59.5 312.667,83.5 312,107.5C 309.952,118.548 303.452,125.382 292.5,128C 267.833,128.667 243.167,128.667 218.5,128C 207.576,125.408 201.076,118.575 199,107.5C 198.333,83.5 198.333,59.5 199,35.5C 201.579,23.0838 209.079,16.0838 221.5,14.5 Z"/></g>
<g><path style="opacity:0.939" fill="#fefffe" d="M 374.5,-0.5 C 402.833,-0.5 431.167,-0.5 459.5,-0.5C 473.548,3.04252 483.048,11.7092 488,25.5C 489.634,54.785 489.968,84.1183 489,113.5C 482.265,135.535 467.265,145.869 444,144.5C 440.167,144.333 436.333,144.167 432.5,144C 426.55,141.523 425.05,137.357 428,131.5C 428.903,130.299 430.069,129.465 431.5,129C 440.56,128.882 449.56,128.215 458.5,127C 465.758,124.076 470.592,118.909 473,111.5C 473.667,85.1667 473.667,58.8333 473,32.5C 470.905,24.073 465.739,18.573 457.5,16C 432.869,14.3927 408.203,14.0594 383.5,15C 371.783,16.0516 364.283,22.2183 361,33.5C 360.333,59.1667 360.333,84.8333 361,110.5C 363.603,120.103 369.769,125.936 379.5,128C 387.5,128.333 395.5,128.667 403.5,129C 408.446,133.3 408.779,137.967 404.5,143C 392.78,145.157 381.113,144.824 369.5,142C 355.513,136.533 347.346,126.366 345,111.5C 344.833,98.1667 344.667,84.8333 344.5,71.5C 344.375,56.4567 344.875,41.4567 346,26.5C 351.012,12.6079 360.512,3.60794 374.5,-0.5 Z"/></g>
<g><path style="opacity:0.909" fill="#fefffe" d="M 114.5,48.5 C 122.839,49.3261 125.672,53.6595 123,61.5C 112.5,72 102,82.5 91.5,93C 88.1667,95 84.8333,95 81.5,93C 76,87.5 70.5,82 65,76.5C 61.7946,67.425 64.9613,63.2583 74.5,64C 78.6481,67.3137 82.6481,70.8137 86.5,74.5C 95.6026,65.3905 104.936,56.7238 114.5,48.5 Z"/></g>
<g><path style="opacity:0.941" fill="#fefffe" d="M 350.5,511.5 C 293.833,511.5 237.167,511.5 180.5,511.5C 179.164,509.99 177.997,508.323 177,506.5C 176.949,492.099 176.282,477.765 175,463.5C 167.721,452.554 160.054,441.888 152,431.5C 149.739,427.05 148.072,422.383 147,417.5C 146.032,402.074 146.366,386.741 148,371.5C 153.441,367.074 158.108,367.741 162,373.5C 162.333,387.5 162.667,401.5 163,415.5C 163.667,417.5 164.333,419.5 165,421.5C 171.333,429.833 177.667,438.167 184,446.5C 187.111,450.387 189.444,454.72 191,459.5C 192.418,471.772 192.918,484.105 192.5,496.5C 241.167,496.5 289.833,496.5 338.5,496.5C 338.333,484.829 338.5,473.162 339,461.5C 341.683,447.435 344.683,433.435 348,419.5C 348.667,378.5 348.667,337.5 348,296.5C 342.548,285.139 335.215,283.806 326,292.5C 324.696,308.742 324.029,325.075 324,341.5C 320.395,349.421 315.395,350.421 309,344.5C 308.667,321.833 308.333,299.167 308,276.5C 304.686,266.286 298.186,263.452 288.5,268C 286.106,269.952 284.606,272.452 284,275.5C 283.667,298.167 283.333,320.833 283,343.5C 279.914,348.752 275.747,349.752 270.5,346.5C 269.416,345.335 268.583,344.002 268,342.5C 267.667,313.167 267.333,283.833 267,254.5C 262.79,245.077 256.29,243.077 247.5,248.5C 246.139,250.028 244.972,251.695 244,253.5C 243.667,283.167 243.333,312.833 243,342.5C 240.305,348.098 236.138,349.598 230.5,347C 229.299,346.097 228.465,344.931 228,343.5C 227.667,291.167 227.333,238.833 227,186.5C 222.68,176.505 215.847,174.338 206.5,180C 204.932,182.304 203.765,184.804 203,187.5C 202.667,246.833 202.333,306.167 202,365.5C 198.822,370.345 194.489,373.679 189,375.5C 182.558,373.954 180.225,369.954 182,363.5C 183.093,361.651 184.426,359.984 186,358.5C 186.973,340.076 186.64,321.743 185,303.5C 176.434,295.307 169.101,296.307 163,306.5C 162.667,319.167 162.333,331.833 162,344.5C 158.987,349.535 154.82,350.702 149.5,348C 148.299,347.097 147.465,345.931 147,344.5C 146.333,331.167 146.333,317.833 147,304.5C 150.522,290.149 159.689,282.482 174.5,281.5C 178.512,281.934 182.346,282.934 186,284.5C 186.041,249.8 186.708,215.133 188,180.5C 193.449,166.018 203.949,159.518 219.5,161C 233.123,163.623 240.956,171.789 243,185.5C 243.167,200.844 243.667,216.178 244.5,231.5C 264.176,226.255 277.342,233.255 284,252.5C 304.383,246.025 317.716,253.025 324,273.5C 336.841,268.376 348.174,270.709 358,280.5C 360.81,284.453 362.81,288.787 364,293.5C 364.667,335.833 364.667,378.167 364,420.5C 361.317,434.565 358.317,448.565 355,462.5C 354.667,477.167 354.333,491.833 354,506.5C 353.003,508.323 351.836,509.99 350.5,511.5 Z"/></g>
</svg>
