<svg version="1.1" id="Layer_1" xmlns="http://www.w3.org/2000/svg" xmlns:xlink="http://www.w3.org/1999/xlink" x="0px" y="0px"
	 width="100%" viewBox="0 0 256 256" enable-background="new 0 0 256 256" xml:space="preserve">
<path fill="#000000" opacity="1.000000" stroke="none" 
	d="
M151.000000,257.000000 
	C100.666672,257.000000 50.833340,257.000000 1.000007,257.000000 
	C1.000005,171.666672 1.000005,86.333351 1.000002,1.000018 
	C86.333321,1.000012 171.666641,1.000012 257.000000,1.000006 
	C257.000000,86.333313 257.000000,171.666626 257.000000,256.999969 
	C221.833328,257.000000 186.666672,257.000000 151.000000,257.000000 
M58.504513,236.000000 
	C87.488617,236.000000 116.475594,235.759109 145.455597,236.104004 
	C159.454727,236.270615 172.467514,223.458221 172.074066,209.573853 
	C171.722031,197.150772 172.000000,184.709839 172.000000,172.000000 
	C185.303726,172.000000 198.099976,172.071091 210.895081,171.980164 
	C223.896255,171.887787 235.904846,160.020233 235.955643,147.135788 
	C236.087646,113.654495 236.145935,80.171387 235.925644,46.691036 
	C235.841644,33.923332 224.376038,22.232084 211.720078,22.110577 
	C177.908249,21.785961 144.089951,21.834291 110.277023,22.096008 
	C99.428673,22.179977 88.344666,30.776196 87.230515,41.508282 
	C85.902916,54.296284 86.325912,67.266502 86.006592,80.158173 
	C85.959167,82.072891 86.000000,83.989799 86.000000,86.000000 
	C72.826294,86.000000 60.339359,86.059700 47.853245,85.984085 
	C33.902382,85.899605 21.992004,97.920113 21.996490,111.597984 
	C22.007309,144.580063 21.988972,177.562134 22.006037,210.544205 
	C22.011936,221.944092 30.426554,232.614044 41.843670,234.900024 
	C46.934147,235.919266 52.278149,235.672287 58.504513,236.000000 
z"/>
<path fill="#FFFFFF" opacity="1.000000" stroke="none" 
	d="
M58.005798,236.000000 
	C52.278149,235.672287 46.934147,235.919266 41.843670,234.900024 
	C30.426554,232.614044 22.011936,221.944092 22.006037,210.544205 
	C21.988972,177.562134 22.007309,144.580063 21.996490,111.597984 
	C21.992004,97.920113 33.902382,85.899605 47.853245,85.984085 
	C60.339359,86.059700 72.826294,86.000000 86.000000,86.000000 
	C86.000000,83.989799 85.959167,82.072891 86.006592,80.158173 
	C86.325912,67.266502 85.902916,54.296284 87.230515,41.508282 
	C88.344666,30.776196 99.428673,22.179977 110.277023,22.096008 
	C144.089951,21.834291 177.908249,21.785961 211.720078,22.110577 
	C224.376038,22.232084 235.841644,33.923332 235.925644,46.691036 
	C236.145935,80.171387 236.087646,113.654495 235.955643,147.135788 
	C235.904846,160.020233 223.896255,171.887787 210.895081,171.980164 
	C198.099976,172.071091 185.303726,172.000000 172.000000,172.000000 
	C172.000000,184.709839 171.722031,197.150772 172.074066,209.573853 
	C172.467514,223.458221 159.454727,236.270615 145.455597,236.104004 
	C116.475594,235.759109 87.488617,236.000000 58.005798,236.000000 
M145.531693,224.058273 
	C147.262039,223.728119 149.088669,223.648193 150.706482,223.025620 
	C158.849426,219.891922 160.716995,212.799179 160.909561,205.274887 
	C161.237778,192.450806 161.097717,179.611053 160.945129,166.780380 
	C160.894135,162.492950 162.573639,160.894608 166.823486,160.945526 
	C179.487518,161.097321 192.165131,161.325577 204.817505,160.912643 
	C218.754913,160.457794 224.715149,154.783066 224.889984,140.772842 
	C225.253891,111.612617 225.052017,82.444458 224.925217,53.280251 
	C224.911453,50.117729 224.240784,46.832066 223.223251,43.823921 
	C220.354691,35.343464 213.093979,33.160664 205.373657,33.097504 
	C175.877548,32.856194 146.378021,32.943172 116.880623,33.083084 
	C113.741425,33.097977 110.478401,33.901421 107.496010,34.964931 
	C99.036392,37.981621 97.234177,45.277458 97.071732,53.026760 
	C96.806328,65.687035 96.880814,78.358650 97.063278,91.021858 
	C97.129013,95.583549 95.334763,97.132622 90.873718,97.066147 
	C78.210686,96.877449 65.526894,96.599075 52.881519,97.107750 
	C39.001732,97.666069 33.450329,103.105949 33.191307,116.032196 
	C32.590443,146.018188 32.830296,176.026093 33.121849,206.021286 
	C33.192955,213.336716 35.395016,220.381302 43.542870,223.037857 
	C46.864697,224.120895 50.454506,224.891769 53.928551,224.915848 
	C77.259239,225.077545 100.591629,225.025604 123.923363,224.984390 
	C130.903793,224.972046 137.883896,224.773026 145.531693,224.058273 
z"/>
<path fill="#000000" opacity="1.000000" stroke="none" 
	d="
M145.197922,224.358902 
	C137.883896,224.773026 130.903793,224.972046 123.923363,224.984390 
	C100.591629,225.025604 77.259239,225.077545 53.928551,224.915848 
	C50.454506,224.891769 46.864697,224.120895 43.542870,223.037857 
	C35.395016,220.381302 33.192955,213.336716 33.121849,206.021286 
	C32.830296,176.026093 32.590443,146.018188 33.191307,116.032196 
	C33.450329,103.105949 39.001732,97.666069 52.881519,97.107750 
	C65.526894,96.599075 78.210686,96.877449 90.873718,97.066147 
	C95.334763,97.132622 97.129013,95.583549 97.063278,91.021858 
	C96.880814,78.358650 96.806328,65.687035 97.071732,53.026760 
	C97.234177,45.277458 99.036392,37.981621 107.496010,34.964931 
	C110.478401,33.901421 113.741425,33.097977 116.880623,33.083084 
	C146.378021,32.943172 175.877548,32.856194 205.373657,33.097504 
	C213.093979,33.160664 220.354691,35.343464 223.223251,43.823921 
	C224.240784,46.832066 224.911453,50.117729 224.925217,53.280251 
	C225.052017,82.444458 225.253891,111.612617 224.889984,140.772842 
	C224.715149,154.783066 218.754913,160.457794 204.817505,160.912643 
	C192.165131,161.325577 179.487518,161.097321 166.823486,160.945526 
	C162.573639,160.894608 160.894135,162.492950 160.945129,166.780380 
	C161.097717,179.611053 161.237778,192.450806 160.909561,205.274887 
	C160.716995,212.799179 158.849426,219.891922 150.706482,223.025620 
	C149.088669,223.648193 147.262039,223.728119 145.197922,224.358902 
M139.956421,94.528160 
	C140.982483,95.352173 141.888779,96.507408 143.059692,96.930763 
	C145.445145,97.793236 148.009781,98.145561 150.435776,98.913017 
	C157.992310,101.303490 159.911255,107.762222 160.876648,114.446999 
	C161.434235,118.307938 163.877029,119.214180 166.605927,118.833405 
	C169.436218,118.438484 171.949463,117.039780 172.076569,113.114517 
	C172.544830,98.653694 160.520569,85.926941 146.144089,86.000000 
	C140.410690,86.029137 138.684937,88.057587 139.956421,94.528160 
M107.935730,171.975998 
	C109.933311,171.983719 112.345146,172.698395 113.828751,171.829010 
	C115.912964,170.607697 118.197975,168.435013 118.750198,166.252518 
	C119.317307,164.011230 118.303253,161.158936 114.625916,160.914078 
	C112.285065,160.758194 109.965942,159.890961 107.693314,159.166336 
	C100.197937,156.776413 98.075531,150.428589 97.136642,143.720322 
	C96.561729,139.612671 94.039207,138.895737 91.050262,139.102798 
	C87.686508,139.335831 86.060402,141.589020 85.966049,145.113571 
	C85.629181,157.698196 94.125343,168.435989 107.935730,171.975998 
M107.951393,88.583664 
	C105.820206,94.627266 107.323662,96.976822 113.347908,96.998047 
	C116.492996,97.009125 119.644279,96.876144 122.781708,97.031532 
	C126.654121,97.223320 129.026398,96.278961 129.088654,91.682610 
	C129.153427,86.900208 126.814568,85.721535 122.647385,85.963951 
	C119.512871,86.146301 116.338356,85.785431 113.222733,86.088562 
	C111.611519,86.245316 110.089668,87.320549 107.951393,88.583664 
M92.363312,128.999863 
	C95.714432,129.069641 97.069031,127.308937 97.014954,124.091675 
	C96.951004,120.287491 96.766083,116.463089 97.062248,112.681023 
	C97.393829,108.446800 94.868454,106.558815 91.609383,107.262383 
	C89.459625,107.726463 86.818825,110.424049 86.238823,112.610039 
	C85.336594,116.010498 86.124687,119.831810 85.966553,123.464745 
	C85.792809,127.456482 87.486328,129.322418 92.363312,128.999863 
M161.000000,137.633118 
	C161.000000,139.962631 161.218216,142.317520 160.950836,144.615921 
	C160.506851,148.432602 161.893311,150.688522 165.794724,150.970123 
	C169.389740,151.229599 171.949356,148.468124 171.992645,144.460510 
	C172.028580,141.133026 171.877014,137.799118 172.031342,134.478439 
	C172.220810,130.401840 170.358307,128.998825 166.390656,128.923218 
	C160.343109,128.807968 160.944473,132.833023 161.000000,137.633118 
M146.810638,171.989075 
	C147.597458,171.439651 148.874527,171.030426 149.079269,170.314529 
	C149.696625,168.155914 150.353104,165.836121 150.152847,163.656509 
	C149.853439,160.397934 146.994751,161.016068 144.753281,161.004929 
	C141.089447,160.986694 137.424973,161.036911 133.761658,160.989914 
	C130.075653,160.942612 128.960999,162.939941 128.948563,166.335312 
	C128.935638,169.867996 129.898438,172.117233 133.932663,172.020767 
	C137.927399,171.925232 141.926193,171.999527 146.810638,171.989075 
z"/>
<path fill="#FFFFFF" opacity="1.000000" stroke="none" 
	d="
M139.678741,94.226974 
	C138.684937,88.057587 140.410690,86.029137 146.144089,86.000000 
	C160.520569,85.926941 172.544830,98.653694 172.076569,113.114517 
	C171.949463,117.039780 169.436218,118.438484 166.605927,118.833405 
	C163.877029,119.214180 161.434235,118.307938 160.876648,114.446999 
	C159.911255,107.762222 157.992310,101.303490 150.435776,98.913017 
	C148.009781,98.145561 145.445145,97.793236 143.059692,96.930763 
	C141.888779,96.507408 140.982483,95.352173 139.678741,94.226974 
z"/>
<path fill="#FFFFFF" opacity="1.000000" stroke="none" 
	d="
M107.531456,171.815094 
	C94.125343,168.435989 85.629181,157.698196 85.966049,145.113571 
	C86.060402,141.589020 87.686508,139.335831 91.050262,139.102798 
	C94.039207,138.895737 96.561729,139.612671 97.136642,143.720322 
	C98.075531,150.428589 100.197937,156.776413 107.693314,159.166336 
	C109.965942,159.890961 112.285065,160.758194 114.625916,160.914078 
	C118.303253,161.158936 119.317307,164.011230 118.750198,166.252518 
	C118.197975,168.435013 115.912964,170.607697 113.828751,171.829010 
	C112.345146,172.698395 109.933311,171.983719 107.531456,171.815094 
z"/>
<path fill="#FFFFFF" opacity="1.000000" stroke="none" 
	d="
M108.239418,88.282242 
	C110.089668,87.320549 111.611519,86.245316 113.222733,86.088562 
	C116.338356,85.785431 119.512871,86.146301 122.647385,85.963951 
	C126.814568,85.721535 129.153427,86.900208 129.088654,91.682610 
	C129.026398,96.278961 126.654121,97.223320 122.781708,97.031532 
	C119.644279,96.876144 116.492996,97.009125 113.347908,96.998047 
	C107.323662,96.976822 105.820206,94.627266 108.239418,88.282242 
z"/>
<path fill="#FFFFFF" opacity="1.000000" stroke="none" 
	d="
M91.931656,128.999939 
	C87.486328,129.322418 85.792809,127.456482 85.966553,123.464745 
	C86.124687,119.831810 85.336594,116.010498 86.238823,112.610039 
	C86.818825,110.424049 89.459625,107.726463 91.609383,107.262383 
	C94.868454,106.558815 97.393829,108.446800 97.062248,112.681023 
	C96.766083,116.463089 96.951004,120.287491 97.014954,124.091675 
	C97.069031,127.308937 95.714432,129.069641 91.931656,128.999939 
z"/>
<path fill="#FFFFFF" opacity="1.000000" stroke="none" 
	d="
M161.000000,137.164062 
	C160.944473,132.833023 160.343109,128.807968 166.390656,128.923218 
	C170.358307,128.998825 172.220810,130.401840 172.031342,134.478439 
	C171.877014,137.799118 172.028580,141.133026 171.992645,144.460510 
	C171.949356,148.468124 169.389740,151.229599 165.794724,150.970123 
	C161.893311,150.688522 160.506851,148.432602 160.950836,144.615921 
	C161.218216,142.317520 161.000000,139.962631 161.000000,137.164062 
z"/>
<path fill="#FFFFFF" opacity="1.000000" stroke="none" 
	d="
M146.366928,171.994202 
	C141.926193,171.999527 137.927399,171.925232 133.932663,172.020767 
	C129.898438,172.117233 128.935638,169.867996 128.948563,166.335312 
	C128.960999,162.939941 130.075653,160.942612 133.761658,160.989914 
	C137.424973,161.036911 141.089447,160.986694 144.753281,161.004929 
	C146.994751,161.016068 149.853439,160.397934 150.152847,163.656509 
	C150.353104,165.836121 149.696625,168.155914 149.079269,170.314529 
	C148.874527,171.030426 147.597458,171.439651 146.366928,171.994202 
z"/>
</svg>