<svg xmlns="http://www.w3.org/2000/svg" version="1.1" width="512px" height="512px" style="shape-rendering:geometricPrecision; text-rendering:geometricPrecision; image-rendering:optimizeQuality; fill-rule:evenodd; clip-rule:evenodd" xmlns:xlink="http://www.w3.org/1999/xlink">
<g><path style="opacity:0.967" fill="#ffffff" d="M -0.5,132.5 C -0.5,125.5 -0.5,118.5 -0.5,111.5C 10.4151,77.7048 33.4151,63.8715 68.5,70C 86.2419,76.0749 98.4085,87.9082 105,105.5C 111.587,133.135 103.087,154.635 79.5,170C 51.0957,182.44 27.2624,176.607 8,152.5C 4.26742,146.112 1.43409,139.445 -0.5,132.5 Z M 52.5,102.5 C 64.5309,103.864 71.1976,110.531 72.5,122.5C 71.1667,133.833 64.8333,140.167 53.5,141.5C 42.0554,139.889 35.3887,133.389 33.5,122C 35.3463,110.988 41.6796,104.488 52.5,102.5 Z"/></g>
<g><path style="opacity:0.967" fill="#ffffff" d="M 511.5,111.5 C 511.5,118.5 511.5,125.5 511.5,132.5C 502.496,162.646 482.162,177.146 450.5,176C 430.916,172.742 416.749,162.242 408,144.5C 397.486,113.366 406.319,89.533 434.5,73C 462.77,62.4223 485.936,69.2556 504,93.5C 507.212,99.3281 509.712,105.328 511.5,111.5 Z M 456.5,102.5 C 468.49,103.657 475.49,110.157 477.5,122C 473.27,139.281 462.937,144.614 446.5,138C 436.881,128.887 436.048,119.054 444,108.5C 447.811,105.509 451.978,103.509 456.5,102.5 Z"/></g>
<g><path style="opacity:0.966" fill="#ffffff" d="M 132.5,104.5 C 214.501,104.333 296.501,104.5 378.5,105C 387.722,106.891 392.722,112.558 393.5,122C 392.902,130.59 388.569,136.257 380.5,139C 297.167,139.667 213.833,139.667 130.5,139C 122.431,136.257 118.098,130.59 117.5,122C 118.468,112.543 123.468,106.71 132.5,104.5 Z"/></g>
<g><path style="opacity:0.962" fill="#ffffff" d="M 50.5,186.5 C 60.1587,186.237 66.6587,190.571 70,199.5C 70.6667,236.833 70.6667,274.167 70,311.5C 67.2566,319.569 61.5899,323.902 53,324.5C 43.5575,323.722 37.8908,318.722 36,309.5C 35.3333,273.5 35.3333,237.5 36,201.5C 37.681,193.321 42.5143,188.321 50.5,186.5 Z"/></g>
<g><path style="opacity:0.962" fill="#ffffff" d="M 455.5,186.5 C 466.234,186.106 472.734,191.106 475,201.5C 475.667,237.5 475.667,273.5 475,309.5C 473.109,318.722 467.442,323.722 458,324.5C 449.446,323.947 443.78,319.613 441,311.5C 440.333,274.167 440.333,236.833 441,199.5C 443.524,192.471 448.357,188.137 455.5,186.5 Z"/></g>
<g><path style="opacity:0.967" fill="#ffffff" d="M -0.5,399.5 C -0.5,392.5 -0.5,385.5 -0.5,378.5C 8.50449,348.354 28.8378,333.854 60.5,335C 81.2302,338.738 95.7302,350.238 104,369.5C 112.695,399.598 103.529,422.431 76.5,438C 48.2304,448.578 25.0637,441.744 7,417.5C 3.78826,411.672 1.28826,405.672 -0.5,399.5 Z M 49.5,369.5 C 67.2762,370.106 74.4428,379.106 71,396.5C 63.4993,408.398 53.6659,410.898 41.5,404C 31.1706,393.531 31.5039,383.198 42.5,373C 44.9252,371.787 47.2585,370.621 49.5,369.5 Z"/></g>
<g><path style="opacity:0.967" fill="#ffffff" d="M 511.5,378.5 C 511.5,385.5 511.5,392.5 511.5,399.5C 500.585,433.295 477.585,447.129 442.5,441C 417.965,432.107 404.965,414.607 403.5,388.5C 404.498,367.661 413.831,351.827 431.5,341C 459.904,328.56 483.738,334.393 503,358.5C 506.733,364.888 509.566,371.555 511.5,378.5 Z M 453.5,369.5 C 467.048,369.217 475.048,375.717 477.5,389C 474.559,403.459 465.893,409.459 451.5,407C 438.705,400.333 435.539,390.499 442,377.5C 445.15,373.689 448.983,371.023 453.5,369.5 Z"/></g>
<g><path style="opacity:0.966" fill="#ffffff" d="M 130.5,371.5 C 213.834,371.333 297.167,371.5 380.5,372C 388.569,374.743 392.902,380.41 393.5,389C 392.722,398.442 387.722,404.109 378.5,406C 296.5,406.667 214.5,406.667 132.5,406C 123.278,404.109 118.278,398.442 117.5,389C 118.299,380.389 122.632,374.555 130.5,371.5 Z"/></g>
</svg>