<svg xmlns="http://www.w3.org/2000/svg" version="1.1" width="512px" height="512px" style="shape-rendering:geometricPrecision; text-rendering:geometricPrecision; image-rendering:optimizeQuality; fill-rule:evenodd; clip-rule:evenodd" xmlns:xlink="http://www.w3.org/1999/xlink">
<g><path style="opacity:0.968" fill="#ffffff" d="M 6.5,-0.5 C 36.5,-0.5 66.5,-0.5 96.5,-0.5C 100.474,2.10059 102.974,5.76726 104,10.5C 104.5,20.1609 104.666,29.8276 104.5,39.5C 205.167,39.5 305.833,39.5 406.5,39.5C 406.334,29.8276 406.5,20.1609 407,10.5C 408.026,5.76726 410.526,2.10059 414.5,-0.5C 444.5,-0.5 474.5,-0.5 504.5,-0.5C 507.167,1.5 509.5,3.83333 511.5,6.5C 511.5,36.5 511.5,66.5 511.5,96.5C 508.899,100.474 505.233,102.974 500.5,104C 490.839,104.5 481.172,104.666 471.5,104.5C 471.5,205.167 471.5,305.833 471.5,406.5C 481.172,406.334 490.839,406.5 500.5,407C 505.233,408.026 508.899,410.526 511.5,414.5C 511.5,444.167 511.5,473.833 511.5,503.5C 509.883,506.784 507.55,509.451 504.5,511.5C 474.5,511.5 444.5,511.5 414.5,511.5C 410.526,508.899 408.026,505.233 407,500.5C 406.5,490.839 406.334,481.172 406.5,471.5C 305.833,471.5 205.167,471.5 104.5,471.5C 104.666,481.172 104.5,490.839 104,500.5C 102.974,505.233 100.474,508.899 96.5,511.5C 66.8333,511.5 37.1667,511.5 7.5,511.5C 4.21573,509.883 1.54906,507.55 -0.5,504.5C -0.5,474.5 -0.5,444.5 -0.5,414.5C 2.10059,410.526 5.76726,408.026 10.5,407C 20.1609,406.5 29.8276,406.334 39.5,406.5C 39.5,305.833 39.5,205.167 39.5,104.5C 29.8276,104.666 20.1609,104.5 10.5,104C 5.76726,102.974 2.10059,100.474 -0.5,96.5C -0.5,66.8333 -0.5,37.1667 -0.5,7.5C 1.11698,4.21573 3.45031,1.54906 6.5,-0.5 Z M 25.5,25.5 C 43.1667,25.5 60.8333,25.5 78.5,25.5C 78.5,43.1667 78.5,60.8333 78.5,78.5C 60.8333,78.5 43.1667,78.5 25.5,78.5C 25.5,60.8333 25.5,43.1667 25.5,25.5 Z M 432.5,25.5 C 450.167,25.5 467.833,25.5 485.5,25.5C 485.5,43.1667 485.5,60.8333 485.5,78.5C 467.833,78.5 450.167,78.5 432.5,78.5C 432.5,60.8333 432.5,43.1667 432.5,25.5 Z M 104.5,65.5 C 205.167,65.5 305.833,65.5 406.5,65.5C 406.334,74.5062 406.5,83.5062 407,92.5C 408.167,99 412,102.833 418.5,104C 427.494,104.5 436.494,104.666 445.5,104.5C 445.5,205.167 445.5,305.833 445.5,406.5C 436.494,406.334 427.494,406.5 418.5,407C 412,408.167 408.167,412 407,418.5C 406.5,427.494 406.334,436.494 406.5,445.5C 305.833,445.5 205.167,445.5 104.5,445.5C 104.666,436.494 104.5,427.494 104,418.5C 102.833,412 99,408.167 92.5,407C 83.5062,406.5 74.5062,406.334 65.5,406.5C 65.5,305.833 65.5,205.167 65.5,104.5C 74.5062,104.666 83.5062,104.5 92.5,104C 99,102.833 102.833,99 104,92.5C 104.5,83.5062 104.666,74.5062 104.5,65.5 Z M 25.5,432.5 C 43.1667,432.5 60.8333,432.5 78.5,432.5C 78.5,450.167 78.5,467.833 78.5,485.5C 60.8333,485.5 43.1667,485.5 25.5,485.5C 25.5,467.833 25.5,450.167 25.5,432.5 Z M 432.5,432.5 C 450.167,432.5 467.833,432.5 485.5,432.5C 485.5,450.167 485.5,467.833 485.5,485.5C 467.833,485.5 450.167,485.5 432.5,485.5C 432.5,467.833 432.5,450.167 432.5,432.5 Z"/></g>
</svg>