<svg xmlns="http://www.w3.org/2000/svg" version="1.1" width="512px" height="512px" style="shape-rendering:geometricPrecision; text-rendering:geometricPrecision; image-rendering:optimizeQuality; fill-rule:evenodd; clip-rule:evenodd" xmlns:xlink="http://www.w3.org/1999/xlink">
<g><path style="opacity:0.954" fill="#ffffff" d="M 228.5,35.5 C 265.613,32.4694 289.113,48.8027 299,84.5C 299.195,89.4179 299.695,94.2512 300.5,99C 320.355,104.422 340.189,109.922 360,115.5C 365.022,108.467 370.855,101.967 377.5,96C 398.659,81.6568 420.992,79.6568 444.5,90C 470.084,106.348 479.917,129.515 474,159.5C 467.141,181.026 452.974,195.193 431.5,202C 423.108,202.674 414.942,203.84 407,205.5C 388.303,257.924 369.803,310.424 351.5,363C 374.954,380.089 383.787,402.922 378,431.5C 368.55,459.632 349.05,474.298 319.5,475.5C 289.875,474.273 270.375,459.606 261,431.5C 259.487,422.553 259.154,413.553 260,404.5C 260.706,399.715 262.206,395.215 264.5,391C 216.333,355.5 168.167,320 120,284.5C 103.582,298.522 84.7482,303.022 63.5,298C 35.3682,288.55 20.7016,269.05 19.5,239.5C 20.7016,209.95 35.3682,190.45 63.5,181C 82.1917,176.48 99.3584,179.647 115,190.5C 138.965,169.537 162.632,148.203 186,126.5C 184.687,121.504 183.021,116.504 181,111.5C 174.815,72.173 190.648,46.8396 228.5,35.5 Z M 231.5,60.5 C 252.84,58.3588 267.007,67.3588 274,87.5C 276.631,108.86 267.798,123.027 247.5,130C 226.14,132.631 211.973,123.798 205,103.5C 202.579,82.1123 211.413,67.779 231.5,60.5 Z M 407.5,108.5 C 428.84,106.359 443.007,115.359 450,135.5C 452.631,156.86 443.798,171.027 423.5,178C 402.14,180.631 387.973,171.798 381,151.5C 378.579,130.112 387.413,115.779 407.5,108.5 Z M 292.5,123.5 C 313.228,128.682 333.895,134.182 354.5,140C 354.396,155.353 358.896,169.186 368,181.5C 372.886,186.723 378.053,191.556 383.5,196C 365.129,248.947 346.462,301.78 327.5,354.5C 309.103,353.355 292.936,358.688 279,370.5C 230.833,335 182.667,299.5 134.5,264C 138.402,256.326 140.068,248.16 139.5,239.5C 140.03,228.983 137.697,219.149 132.5,210C 134.447,207.049 136.781,204.382 139.5,202C 161.298,183.204 182.798,164.038 204,144.5C 219.673,155.351 236.84,158.517 255.5,154C 272.542,149.45 284.876,139.284 292.5,123.5 Z M 71.5,204.5 C 92.8399,202.359 107.007,211.359 114,231.5C 116.631,252.86 107.798,267.027 87.5,274C 66.1401,276.631 51.9734,267.798 45,247.5C 42.5795,226.112 51.4128,211.779 71.5,204.5 Z M 311.5,380.5 C 332.84,378.359 347.007,387.359 354,407.5C 356.631,428.86 347.798,443.027 327.5,450C 306.14,452.631 291.973,443.798 285,423.5C 282.579,402.112 291.413,387.779 311.5,380.5 Z"/></g>
</svg>