<svg class="svg-icon" style="width: 1em; height: 1em;vertical-align: middle;fill: currentColor;overflow: hidden;" viewBox="0 0 1024 1024" version="1.1" xmlns="http://www.w3.org/2000/svg"><path d="M760.4224 328.0896H702.464v-64.512c0-38.5024-22.7328-74.3424-64.512-74.3424H263.5776c-38.912 0-74.3424 32.3584-74.3424 74.3424V624.64c0 38.5024 32.3584 74.3424 74.3424 74.3424H321.536v61.2352c0 38.5024 32.3584 74.3424 74.3424 74.3424h364.3392c38.5024 0 74.3424-32.3584 74.3424-74.3424V399.1552c0-42.1888-32.1536-71.0656-74.1376-71.0656z m-435.4048 71.0656l-3.2768 267.8784h-61.2352c-22.7328 0-29.0816-26.0096-29.0816-48.3328V289.1776c0-22.7328 9.6256-57.9584 32.3584-57.9584h364.3392c22.7328 0 35.4304 12.9024 35.4304 38.5024v54.8864H402.432c-45.4656 6.7584-77.4144 32.3584-77.4144 74.5472z m419.0208 387.072H412.0576c-22.7328 0-41.7792-19.456-41.7792-41.7792V412.0576c0-22.7328 19.456-41.7792 41.7792-41.7792h332.3904c22.7328 0 41.7792 19.456 41.7792 41.7792v329.1136c0 28.8768-19.456 45.056-42.1888 45.056z m0 0"  /><path d="M708.8128 482.9184c-3.2768-3.2768-9.6256-6.5536-12.9024-6.5536-6.5536 0-9.6256 3.2768-12.9024 6.5536l-141.7216 141.9264-64.512-64.512c-3.2768-3.2768-9.6256-6.5536-12.9024-6.5536-6.5536 0-9.6256 3.2768-12.9024 6.5536l-9.6256 9.6256c-3.2768 3.2768-6.5536 9.6256-6.5536 12.9024 0 6.5536 3.2768 9.6256 6.5536 12.9024l83.968 83.968c6.5536 6.5536 16.1792 6.5536 22.7328 3.2768 3.2768 0 9.6256-3.2768 12.9024-6.5536l161.3824-158.3104c3.2768-3.2768 6.5536-9.6256 6.5536-12.9024 0-6.5536-3.2768-9.6256-6.5536-12.9024l-13.5168-9.4208z m0 0"  /></svg>