<svg xmlns="http://www.w3.org/2000/svg" version="1.1" width="512px" height="512px" style="shape-rendering:geometricPrecision; text-rendering:geometricPrecision; image-rendering:optimizeQuality; fill-rule:evenodd; clip-rule:evenodd" xmlns:xlink="http://www.w3.org/1999/xlink">
<g><path style="opacity:0.963" fill="#ffffff" d="M 233.5,-0.5 C 248.167,-0.5 262.833,-0.5 277.5,-0.5C 371.886,11.0786 441.386,58.7453 486,142.5C 499.666,171.509 508.166,201.843 511.5,233.5C 511.5,248.167 511.5,262.833 511.5,277.5C 499.921,371.886 452.255,441.386 368.5,486C 339.491,499.666 309.157,508.166 277.5,511.5C 262.833,511.5 248.167,511.5 233.5,511.5C 139.114,499.921 69.6135,452.255 25,368.5C 11.3344,339.491 2.83436,309.157 -0.5,277.5C -0.5,262.833 -0.5,248.167 -0.5,233.5C 11.0786,139.114 58.7453,69.6135 142.5,25C 171.509,11.3344 201.843,2.83436 233.5,-0.5 Z M 234.5,30.5 C 331.597,26.2852 404.763,65.6186 454,148.5C 485.632,211.339 488.965,275.672 464,341.5C 435.214,406.977 386.714,450.477 318.5,472C 242.169,491.935 173.169,477.602 111.5,429C 52.6192,377.703 25.7859,312.87 31,234.5C 40.83,155.613 79.9967,96.4462 148.5,57C 175.639,42.7838 204.306,33.9505 234.5,30.5 Z"/></g>
</svg>