<svg xmlns="http://www.w3.org/2000/svg" version="1.1" width="512px" height="512px" style="shape-rendering:geometricPrecision; text-rendering:geometricPrecision; image-rendering:optimizeQuality; fill-rule:evenodd; clip-rule:evenodd" xmlns:xlink="http://www.w3.org/1999/xlink">
<g><path style="opacity:0.962" fill="#ffffff" d="M 511.5,180.5 C 511.5,189.833 511.5,199.167 511.5,208.5C 509.892,216.514 507.726,224.514 505,232.5C 498.604,245.625 491.937,258.625 485,271.5C 480.043,284.486 478.71,297.819 481,311.5C 485.717,331.421 490.051,351.421 494,371.5C 496.096,428.151 470.596,466.317 417.5,486C 397.661,491.154 377.661,491.821 357.5,488C 330.833,482 304.167,476 277.5,470C 263.765,467.776 250.098,468.11 236.5,471C 223.483,476.339 210.15,480.672 196.5,484C 145.92,490.609 106.754,472.775 79,430.5C 75.1146,422.729 71.7813,414.729 69,406.5C 64.108,386.597 58.4414,366.93 52,347.5C 39.1603,327.819 25.827,308.485 12,289.5C 5.89734,277.691 1.73068,265.357 -0.5,252.5C -0.5,243.5 -0.5,234.5 -0.5,225.5C 4.94128,191.449 22.2746,165.283 51.5,147C 67.5822,139.085 83.9156,131.751 100.5,125C 115.969,118.856 128.469,109.022 138,95.5C 145.761,78.0853 156.261,62.5853 169.5,49C 203.266,21.2465 241.266,13.5798 283.5,26C 292.724,29.2789 301.391,33.6122 309.5,39C 320.799,48.6307 331.799,58.6307 342.5,69C 352.347,76.4215 363.347,81.4215 375.5,84C 391.859,85.8026 408.193,87.8026 424.5,90C 472.429,102.093 501.429,132.26 511.5,180.5 Z M 233.5,51.5 C 257.251,48.9352 278.584,54.7686 297.5,69C 306.565,78.7343 316.231,87.7343 326.5,96C 340.416,105.62 355.749,111.954 372.5,115C 388.555,116.605 404.555,118.605 420.5,121C 464.468,134.757 483.968,164.59 479,210.5C 477.869,214.894 476.535,219.227 475,223.5C 466.946,236.942 459.946,250.942 454,265.5C 448.209,283.579 447.209,301.912 451,320.5C 455.317,338.436 459.317,356.436 463,374.5C 463.968,420.679 441.801,448.846 396.5,459C 388.5,459.667 380.5,459.667 372.5,459C 341.836,452.334 311.169,445.667 280.5,439C 265.814,435.991 251.148,435.991 236.5,439C 224.112,441.862 212.112,445.862 200.5,451C 161.337,460.651 130.171,449.151 107,416.5C 103.023,409.569 100.023,402.236 98,394.5C 93.2861,375.643 87.9528,356.976 82,338.5C 71.569,319.412 59.569,301.412 46,284.5C 29.2059,261.37 25.8726,236.37 36,209.5C 42.9583,194.541 53.4583,182.707 67.5,174C 83.5822,166.085 99.9156,158.751 116.5,152C 133.513,144.079 148.013,132.912 160,118.5C 167.585,106.332 174.918,93.9985 182,81.5C 195.541,65.1503 212.708,55.1503 233.5,51.5 Z"/></g>
</svg>