<svg xmlns="http://www.w3.org/2000/svg" version="1.1" width="512px" height="512px" style="shape-rendering:geometricPrecision; text-rendering:geometricPrecision; image-rendering:optimizeQuality; fill-rule:evenodd; clip-rule:evenodd" xmlns:xlink="http://www.w3.org/1999/xlink">
<g><path style="opacity:0.96" fill="#ffffff" d="M 511.5,266.5 C 511.5,279.167 511.5,291.833 511.5,304.5C 506.886,340.728 492.719,372.728 469,400.5C 447.833,421.667 426.667,442.833 405.5,464C 381.965,483.298 354.965,494.631 324.5,498C 271.833,498.667 219.167,498.667 166.5,498C 120.225,491.377 87.3916,466.877 68,424.5C 64.2382,414.453 61.5716,404.12 60,393.5C 59.6667,372.833 59.3333,352.167 59,331.5C 44,316.5 29,301.5 14,286.5C 7.00622,277.846 2.17288,268.179 -0.5,257.5C -0.5,249.833 -0.5,242.167 -0.5,234.5C 6.08691,208.58 22.4202,192.246 48.5,185.5C 40.3556,172.277 37.5222,157.944 40,142.5C 49.4216,106.189 72.9216,89.689 110.5,93C 115.95,94.207 121.283,95.707 126.5,97.5C 130.149,75.3816 142.149,59.5482 162.5,50C 185.712,41.6743 206.879,45.1743 226,60.5C 236.323,26.7469 259.156,10.9136 294.5,13C 305.215,14.5261 314.882,18.5261 323.5,25C 374.028,75.1942 424.194,125.694 474,176.5C 494.994,202.987 507.494,232.987 511.5,266.5 Z M 278.5,40.5 C 289.249,39.1033 298.916,41.6033 307.5,48C 353.333,93.8333 399.167,139.667 445,185.5C 481.329,227.159 492.329,274.826 478,328.5C 471.435,349.645 460.768,368.311 446,384.5C 427.167,403.333 408.333,422.167 389.5,441C 367.519,460.146 341.852,470.146 312.5,471C 267.167,471.667 221.833,471.667 176.5,471C 137.943,468.15 110.443,449.317 94,414.5C 87.1812,396.766 84.8479,378.432 87,359.5C 96.8333,369.333 106.667,379.167 116.5,389C 123.723,393.889 130.557,393.389 137,387.5C 139.815,382.317 140.148,376.984 138,371.5C 103.361,335.861 68.3613,300.528 33,265.5C 22.7173,247.917 25.2173,232.417 40.5,219C 54.0602,211.394 67.3936,211.727 80.5,220C 92.8333,232.333 105.167,244.667 117.5,257C 123.167,260.333 128.833,260.333 134.5,257C 140.492,250.228 140.992,243.061 136,235.5C 113.971,213.805 92.3048,191.805 71,169.5C 62.9437,151.894 66.4437,137.06 81.5,125C 94.9212,117.302 107.921,117.969 120.5,127C 141.5,148 162.5,169 183.5,190C 195.836,195.664 203.503,191.997 206.5,179C 205.922,177.189 205.422,175.355 205,173.5C 189.667,157.5 174.333,141.5 159,125.5C 149.846,109.919 151.346,95.419 163.5,82C 177.923,71.1127 192.59,70.7794 207.5,81C 221.833,95.3333 236.167,109.667 250.5,124C 267.442,129.059 274.275,122.892 271,105.5C 264.705,99.5633 259.372,92.8967 255,85.5C 249.536,63.4837 257.369,48.4837 278.5,40.5 Z"/></g>
</svg>