<svg xmlns="http://www.w3.org/2000/svg" version="1.1" width="512px" height="512px" style="shape-rendering:geometricPrecision; text-rendering:geometricPrecision; image-rendering:optimizeQuality; fill-rule:evenodd; clip-rule:evenodd" xmlns:xlink="http://www.w3.org/1999/xlink">
<g><path style="opacity:0.965" fill="#ffffff" d="M 511.5,487.5 C 511.5,491.5 511.5,495.5 511.5,499.5C 508.825,505.004 504.491,508.504 498.5,510C 389.833,510.667 281.167,510.667 172.5,510C 151.084,507.621 132.417,499.288 116.5,485C 85.6667,454.167 54.8333,423.333 24,392.5C 11.2631,378.027 3.09644,361.36 -0.5,342.5C -0.5,333.833 -0.5,325.167 -0.5,316.5C 1.97654,303.207 7.47654,291.207 16,280.5C 103.833,192.667 191.667,104.833 279.5,17C 309.033,-3.05998 339.699,-4.72664 371.5,12C 376.672,15.0852 381.672,18.4186 386.5,22C 420,55.5 453.5,89 487,122.5C 511.11,153.262 514.776,186.262 498,221.5C 495.578,225.344 492.911,229.01 490,232.5C 408.5,314 327,395.5 245.5,477C 330.5,477.333 415.5,477.667 500.5,478C 505.594,479.599 509.261,482.766 511.5,487.5 Z M 321.5,33.5 C 337.527,32.6759 351.86,37.1759 364.5,47C 397,79.5 429.5,112 462,144.5C 474.627,160.304 478.294,177.971 473,197.5C 470.499,202.506 467.499,207.173 464,211.5C 400.32,275.347 336.486,339.014 272.5,402.5C 217.014,347.514 161.68,292.347 106.5,237C 171.167,172.333 235.833,107.667 300.5,43C 306.848,38.1713 313.848,35.0047 321.5,33.5 Z M 82.5,260.5 C 137.799,315.299 192.965,370.299 248,425.5C 248.667,426.167 248.667,426.833 248,427.5C 233.106,443.062 217.606,457.896 201.5,472C 182.637,480.369 164.637,478.702 147.5,467C 114.724,436.225 82.5571,404.725 51,372.5C 39.2992,360.422 32.7992,345.922 31.5,329C 32.007,319.164 35.1737,310.331 41,302.5C 55.0352,288.632 68.8686,274.632 82.5,260.5 Z"/></g>
<g><path style="opacity:0.94" fill="#ffffff" d="M 319.5,94.5 C 325.646,94.0483 330.979,95.8816 335.5,100C 360.333,124.833 385.167,149.667 410,174.5C 416.354,183.445 415.854,191.945 408.5,200C 400.949,204.613 393.615,204.28 386.5,199C 361.333,173.833 336.167,148.667 311,123.5C 304.323,113.944 305.157,105.111 313.5,97C 315.611,96.1553 317.611,95.322 319.5,94.5 Z"/></g>
</svg>