<svg xmlns="http://www.w3.org/2000/svg" version="1.1" width="512px" height="512px" style="shape-rendering:geometricPrecision; text-rendering:geometricPrecision; image-rendering:optimizeQuality; fill-rule:evenodd; clip-rule:evenodd" xmlns:xlink="http://www.w3.org/1999/xlink">
<g><path style="opacity:0.994" fill="#ffffff" d="M 53.5,15.5 C 165.5,15.3333 277.5,15.5 389.5,16C 390.833,16.6667 392.167,17.3333 393.5,18C 426.667,51.1667 459.833,84.3333 493,117.5C 493.667,118.833 494.333,120.167 495,121.5C 495.667,233.5 495.667,345.5 495,457.5C 489.833,477.333 477.333,489.833 457.5,495C 322.833,495.667 188.167,495.667 53.5,495C 33.6667,489.833 21.1667,477.333 16,457.5C 15.3333,322.833 15.3333,188.167 16,53.5C 21.3488,33.6518 33.8488,20.9852 53.5,15.5 Z M 63.5,47.5 C 95.5,47.5 127.5,47.5 159.5,47.5C 159.333,82.1683 159.5,116.835 160,151.5C 163.167,164 171,171.833 183.5,175C 231.5,175.667 279.5,175.667 327.5,175C 340,171.833 347.833,164 351,151.5C 351.5,116.835 351.667,82.1683 351.5,47.5C 359.84,47.3336 368.173,47.5003 376.5,48C 405.333,76.8333 434.167,105.667 463,134.5C 463.667,238.833 463.667,343.167 463,447.5C 462.553,454.566 459.053,459.399 452.5,462C 440.22,463.394 427.886,463.894 415.5,463.5C 415.667,422.832 415.5,382.165 415,341.5C 409.833,321.667 397.333,309.167 377.5,304C 296.167,303.333 214.833,303.333 133.5,304C 113.667,309.167 101.167,321.667 96,341.5C 95.5,382.165 95.3333,422.832 95.5,463.5C 83.1137,463.894 70.7804,463.394 58.5,462C 51.9469,459.399 48.4469,454.566 48,447.5C 47.3333,319.5 47.3333,191.5 48,63.5C 49.3459,54.3224 54.5125,48.9891 63.5,47.5 Z M 191.5,47.5 C 234.167,47.5 276.833,47.5 319.5,47.5C 319.5,79.5 319.5,111.5 319.5,143.5C 276.833,143.5 234.167,143.5 191.5,143.5C 191.5,111.5 191.5,79.5 191.5,47.5 Z M 143.5,335.5 C 218.167,335.333 292.834,335.5 367.5,336C 376.667,337.167 381.833,342.333 383,351.5C 383.5,388.832 383.667,426.165 383.5,463.5C 298.167,463.5 212.833,463.5 127.5,463.5C 127.333,426.165 127.5,388.832 128,351.5C 129.346,342.322 134.513,336.989 143.5,335.5 Z"/></g>
</svg>