<svg xmlns="http://www.w3.org/2000/svg" version="1.1" width="512px" height="512px" style="shape-rendering:geometricPrecision; text-rendering:geometricPrecision; image-rendering:optimizeQuality; fill-rule:evenodd; clip-rule:evenodd" xmlns:xlink="http://www.w3.org/1999/xlink">
<g><path style="opacity:0.965" fill="#ffffff" d="M 189.5,-0.5 C 202.833,-0.5 216.167,-0.5 229.5,-0.5C 313.204,12.3662 368.37,59.0328 395,139.5C 410.987,202.898 399.321,260.565 360,312.5C 354.866,318.635 349.366,324.469 343.5,330C 392.667,381.167 441.833,432.333 491,483.5C 497.526,495.394 495.026,504.727 483.5,511.5C 479.5,511.5 475.5,511.5 471.5,511.5C 466.679,509.199 462.512,505.866 459,501.5C 411.333,451.833 363.667,402.167 316,352.5C 257.707,388.864 196.541,394.364 132.5,369C 77.0895,343.253 40.5895,301.086 23,242.5C 4.4627,157.763 28.9627,88.5963 96.5,35C 124.647,15.5642 155.647,3.73085 189.5,-0.5 Z M 200.5,33.5 C 258.364,32.8502 304.531,55.5168 339,101.5C 373.382,155.097 376.382,210.43 348,267.5C 320.724,314.742 279.89,341.909 225.5,349C 157.71,352.859 106.21,326.026 71,268.5C 44.7148,216.67 45.0481,165.003 72,113.5C 101.512,65.65 144.346,38.9833 200.5,33.5 Z"/></g>
<g><path style="opacity:0.959" fill="#ffffff" d="M 118.5,174.5 C 178.834,174.333 239.168,174.5 299.5,175C 310.418,178.616 314.585,186.116 312,197.5C 309.381,203.557 304.881,207.39 298.5,209C 239.167,209.667 179.833,209.667 120.5,209C 111.045,207.041 106.045,201.208 105.5,191.5C 106.523,183.161 110.857,177.494 118.5,174.5 Z"/></g>
</svg>