<svg xmlns="http://www.w3.org/2000/svg" version="1.1" width="512px" height="512px" style="shape-rendering:geometricPrecision; text-rendering:geometricPrecision; image-rendering:optimizeQuality; fill-rule:evenodd; clip-rule:evenodd" xmlns:xlink="http://www.w3.org/1999/xlink">
<g><path style="opacity:0.966" fill="#ffffff" d="M 189.5,-0.5 C 202.833,-0.5 216.167,-0.5 229.5,-0.5C 299.221,9.26548 350.387,45.2655 383,107.5C 410.191,168.447 408.191,228.447 377,287.5C 367.739,303.103 356.572,317.27 343.5,330C 392.667,381.167 441.833,432.333 491,483.5C 497.526,495.394 495.026,504.727 483.5,511.5C 479.5,511.5 475.5,511.5 471.5,511.5C 466.679,509.199 462.512,505.866 459,501.5C 411.333,451.833 363.667,402.167 316,352.5C 257.707,388.864 196.541,394.364 132.5,369C 77.0895,343.253 40.5895,301.086 23,242.5C 4.4627,157.763 28.9627,88.5963 96.5,35C 124.647,15.5642 155.647,3.73085 189.5,-0.5 Z M 200.5,33.5 C 258.364,32.8502 304.531,55.5168 339,101.5C 373.382,155.097 376.382,210.43 348,267.5C 320.724,314.742 279.89,341.909 225.5,349C 157.71,352.859 106.21,326.026 71,268.5C 44.7148,216.67 45.0481,165.003 72,113.5C 101.512,65.65 144.346,38.9833 200.5,33.5 Z"/></g>
<g><path style="opacity:0.963" fill="#ffffff" d="M 204.5,88.5 C 214.734,87.1963 221.9,91.1963 226,100.5C 226.5,125.164 226.667,149.831 226.5,174.5C 250.836,174.333 275.169,174.5 299.5,175C 310.418,178.616 314.585,186.116 312,197.5C 309.381,203.557 304.881,207.39 298.5,209C 274.502,209.5 250.502,209.667 226.5,209.5C 226.667,233.836 226.5,258.169 226,282.5C 220.236,295.238 211.069,298.405 198.5,292C 194.908,288.984 192.742,285.151 192,280.5C 191.5,256.836 191.333,233.169 191.5,209.5C 167.831,209.667 144.164,209.5 120.5,209C 111.045,207.041 106.045,201.208 105.5,191.5C 106.324,183.182 110.657,177.682 118.5,175C 142.831,174.5 167.164,174.333 191.5,174.5C 191.333,150.831 191.5,127.164 192,103.5C 193.51,96.1664 197.677,91.1664 204.5,88.5 Z"/></g>
</svg>