<svg version="1.1" id="Layer_1" xmlns="http://www.w3.org/2000/svg" xmlns:xlink="http://www.w3.org/1999/xlink" x="0px" y="0px"
	 width="100%" viewBox="0 0 256 256" enable-background="new 0 0 256 256" xml:space="preserve">
<path fill="#000000" opacity="1.000000" stroke="none" 
	d="
M184.000000,1.000000 
	C208.317139,1.000000 232.634277,1.000000 256.975708,1.000000 
	C256.975708,86.260353 256.975708,171.520706 256.975708,256.890533 
	C171.666748,256.890533 86.333397,256.890533 1.000023,256.890076 
	C1.000000,232.905518 1.000000,208.921417 1.300335,184.179504 
	C2.376473,184.429871 3.263746,185.371689 3.909929,186.457047 
	C8.011844,193.346832 14.179464,197.765320 21.998079,197.854553 
	C52.985664,198.208237 83.982643,198.249039 114.969826,197.878052 
	C127.460670,197.728485 137.545303,186.597687 137.100189,175.322662 
	C136.647003,163.843658 136.990677,152.332809 137.013382,140.835968 
	C137.015869,139.579361 137.202850,138.323135 137.299362,137.127686 
	C138.020096,137.063980 138.347656,137.009872 138.675247,137.009705 
	C151.005219,137.003372 163.351105,136.612366 175.660461,137.115005 
	C186.862106,137.572418 197.993332,126.094887 197.996841,114.637436 
	C198.006165,84.312302 198.061142,53.986965 197.961807,23.662153 
	C197.932938,14.848459 193.594940,8.329823 186.237640,3.649379 
	C185.306702,3.057147 184.737045,1.897021 184.000000,1.000000 
z"/>
<path fill="#FFFFFF" opacity="1.000000" stroke="none" 
	d="
M183.531342,1.000000 
	C184.737045,1.897021 185.306702,3.057147 186.237640,3.649379 
	C193.594940,8.329823 197.932938,14.848459 197.961807,23.662153 
	C198.061142,53.986965 198.006165,84.312302 197.996841,114.637436 
	C197.993332,126.094887 186.862106,137.572418 175.660461,137.115005 
	C163.351105,136.612366 151.005219,137.003372 138.675247,137.009705 
	C138.347656,137.009872 138.020096,137.063980 137.299362,137.127686 
	C137.202850,138.323135 137.015869,139.579361 137.013382,140.835968 
	C136.990677,152.332809 136.647003,163.843658 137.100189,175.322662 
	C137.545303,186.597687 127.460670,197.728485 114.969826,197.878052 
	C83.982643,198.249039 52.985664,198.208237 21.998079,197.854553 
	C14.179464,197.765320 8.011844,193.346832 3.909929,186.457047 
	C3.263746,185.371689 2.376473,184.429871 1.300335,183.710846 
	C1.000000,147.979111 1.000000,111.958214 1.300338,75.757812 
	C1.998586,75.279556 2.576056,75.067459 2.768124,74.669403 
	C7.472340,64.920067 15.630837,61.046276 26.009066,61.009422 
	C37.582359,60.968323 49.155907,61.000000 61.000000,61.000000 
	C61.000000,48.882500 60.945393,37.277832 61.016598,25.673937 
	C61.077930,15.678566 64.978966,7.826267 74.047997,2.927215 
	C74.562279,2.649402 74.691536,1.658835 75.000000,0.999999 
	C111.020897,1.000000 147.041794,1.000000 183.531342,1.000000 
M13.000000,128.500000 
	C13.000005,143.485596 12.961026,158.471329 13.017243,173.456711 
	C13.043489,180.452576 17.705021,184.996964 24.656656,184.998062 
	C53.961807,185.002670 83.269356,184.793182 112.570557,185.133408 
	C120.737549,185.228256 124.457314,180.529953 124.801430,174.205154 
	C125.467354,161.965805 124.995987,149.664551 124.995987,137.000000 
	C111.494713,137.000000 98.379440,136.744598 85.278481,137.068420 
	C70.803047,137.426224 60.849518,126.276070 60.974972,112.600204 
	C61.092056,99.836716 61.000000,87.071312 61.000000,74.000000 
	C48.900764,74.000000 37.279671,73.999687 25.658573,74.000099 
	C17.364914,74.000397 13.009997,78.301086 13.003106,86.539391 
	C12.991686,100.192917 13.000000,113.846466 13.000000,128.500000 
M97.499779,61.000000 
	C103.161041,61.000008 108.835136,60.754860 114.480911,61.050629 
	C126.548973,61.682838 137.074234,70.567085 137.010712,83.660416 
	C136.958221,94.483170 137.000000,105.306381 137.000000,116.129395 
	C137.000000,119.050049 137.000000,121.970695 137.000000,124.999939 
	C149.475174,124.999939 161.295486,125.264877 173.096436,124.901443 
	C180.276581,124.680328 185.263947,120.330544 185.161011,112.687042 
	C184.764175,83.220490 185.005127,53.745426 184.995926,24.273537 
	C184.993942,17.955168 180.421127,13.052734 174.072464,13.035680 
	C144.267761,12.955615 114.462654,12.964803 84.657913,13.035951 
	C79.834908,13.047464 74.169106,17.421022 74.093880,21.547649 
	C73.855431,34.627605 74.005745,47.714649 74.005745,61.000000 
	C81.888344,61.000000 89.194115,61.000000 97.499779,61.000000 
M118.004349,100.493546 
	C123.778297,96.137894 126.887566,90.796638 124.863594,84.638527 
	C111.523857,97.990051 97.809189,111.716843 84.672348,124.865303 
	C89.932396,126.207619 94.885765,124.592186 99.313438,119.417030 
	C104.909134,112.876671 111.399742,107.101959 118.004349,100.493546 
M105.500084,83.999962 
	C108.642502,80.919167 111.784912,77.838364 115.247139,74.444023 
	C105.085297,73.405502 105.084526,73.404732 99.025192,79.467583 
	C92.326370,86.170311 85.990852,93.297653 78.810555,99.437126 
	C73.579544,103.909866 73.548164,108.888405 74.368286,115.289871 
	C84.885124,104.718719 94.942574,94.609329 105.500084,83.999962 
M124.266357,124.942978 
	C124.574524,120.740906 124.882690,116.538841 125.163391,112.711197 
	C120.858490,117.010155 116.839577,121.023521 112.861771,124.995834 
	C116.125656,124.995834 119.722153,124.995834 124.266357,124.942978 
M78.449730,74.000000 
	C77.020599,74.077766 75.591469,74.155533 74.310516,74.225235 
	C74.310516,78.280014 74.310516,81.963875 74.310516,84.195427 
	C77.600395,81.152512 81.466515,77.576622 85.347244,74.000000 
	C83.354393,74.000000 81.361549,74.000000 78.449730,74.000000 
z"/>
<path fill="#000000" opacity="1.000000" stroke="none" 
	d="
M74.531342,0.999999 
	C74.691536,1.658835 74.562279,2.649402 74.047997,2.927215 
	C64.978966,7.826267 61.077930,15.678566 61.016598,25.673937 
	C60.945393,37.277832 61.000000,48.882500 61.000000,61.000000 
	C49.155907,61.000000 37.582359,60.968323 26.009066,61.009422 
	C15.630837,61.046276 7.472340,64.920067 2.768124,74.669403 
	C2.576056,75.067459 1.998586,75.279556 1.300338,75.289154 
	C1.000000,50.406464 1.000000,25.812923 1.000000,1.000000 
	C25.353788,1.000000 49.708237,1.000000 74.531342,0.999999 
z"/>
<path fill="#000000" opacity="1.000000" stroke="none" 
	d="
M13.000000,128.000000 
	C13.000000,113.846466 12.991686,100.192917 13.003106,86.539391 
	C13.009997,78.301086 17.364914,74.000397 25.658573,74.000099 
	C37.279671,73.999687 48.900764,74.000000 61.000000,74.000000 
	C61.000000,87.071312 61.092056,99.836716 60.974972,112.600204 
	C60.849518,126.276070 70.803047,137.426224 85.278481,137.068420 
	C98.379440,136.744598 111.494713,137.000000 124.995987,137.000000 
	C124.995987,149.664551 125.467354,161.965805 124.801430,174.205154 
	C124.457314,180.529953 120.737549,185.228256 112.570557,185.133408 
	C83.269356,184.793182 53.961807,185.002670 24.656656,184.998062 
	C17.705021,184.996964 13.043489,180.452576 13.017243,173.456711 
	C12.961026,158.471329 13.000005,143.485596 13.000000,128.000000 
z"/>
<path fill="#000000" opacity="1.000000" stroke="none" 
	d="
M96.999832,61.000000 
	C89.194115,61.000000 81.888344,61.000000 74.005745,61.000000 
	C74.005745,47.714649 73.855431,34.627605 74.093880,21.547649 
	C74.169106,17.421022 79.834908,13.047464 84.657913,13.035951 
	C114.462654,12.964803 144.267761,12.955615 174.072464,13.035680 
	C180.421127,13.052734 184.993942,17.955168 184.995926,24.273537 
	C185.005127,53.745426 184.764175,83.220490 185.161011,112.687042 
	C185.263947,120.330544 180.276581,124.680328 173.096436,124.901443 
	C161.295486,125.264877 149.475174,124.999939 137.000000,124.999939 
	C137.000000,121.970695 137.000000,119.050049 137.000000,116.129395 
	C137.000000,105.306381 136.958221,94.483170 137.010712,83.660416 
	C137.074234,70.567085 126.548973,61.682838 114.480911,61.050629 
	C108.835136,60.754860 103.161041,61.000008 96.999832,61.000000 
z"/>
<path fill="#000000" opacity="1.000000" stroke="none" 
	d="
M117.754333,100.745270 
	C111.399742,107.101959 104.909134,112.876671 99.313438,119.417030 
	C94.885765,124.592186 89.932396,126.207619 84.672348,124.865303 
	C97.809189,111.716843 111.523857,97.990051 124.863594,84.638527 
	C126.887566,90.796638 123.778297,96.137894 117.754333,100.745270 
z"/>
<path fill="#000000" opacity="1.000000" stroke="none" 
	d="
M105.250061,84.249954 
	C94.942574,94.609329 84.885124,104.718719 74.368286,115.289871 
	C73.548164,108.888405 73.579544,103.909866 78.810555,99.437126 
	C85.990852,93.297653 92.326370,86.170311 99.025192,79.467583 
	C105.084526,73.404732 105.085297,73.405502 115.247139,74.444023 
	C111.784912,77.838364 108.642502,80.919167 105.250061,84.249954 
z"/>
<path fill="#000000" opacity="1.000000" stroke="none" 
	d="
M123.792503,124.969406 
	C119.722153,124.995834 116.125656,124.995834 112.861771,124.995834 
	C116.839577,121.023521 120.858490,117.010155 125.163391,112.711197 
	C124.882690,116.538841 124.574524,120.740906 123.792503,124.969406 
z"/>
<path fill="#000000" opacity="1.000000" stroke="none" 
	d="
M78.909210,74.000000 
	C81.361549,74.000000 83.354393,74.000000 85.339935,74.000366 
	C81.466515,77.576622 77.600395,81.152512 74.310516,84.195427 
	C74.310516,81.963875 74.310516,78.280014 74.310516,74.225235 
	C75.591469,74.155533 77.020599,74.077766 78.909210,74.000000 
z"/>
</svg>